<svg width="29" height="35" viewBox="0 0 29 35" fill="none" xmlns="http://www.w3.org/2000/svg">
<path d="M3.18841 0.0473785C1.78261 0.324501 0.637681 1.25726 0.166667 2.53474L0 2.9876V17.2832V31.5787L0.166667 32.0248C0.57971 33.1468 1.50725 34.012 2.7029 34.3973L3.18841 34.5527H14.0942H25L25.4855 34.3973C26.6812 34.012 27.6087 33.1468 28.0217 32.0248L28.1884 31.5787V20.3924V9.206L28.029 8.73286C27.7246 7.84741 27.5362 7.6514 23.5797 4.15693C21.5435 2.359 19.6812 0.763847 19.4348 0.608387C19.1884 0.459686 18.7754 0.256912 18.5145 0.169044L18.0435 0.0135841L10.7609 6.48499e-05C6.75362 6.48499e-05 3.34783 0.0203438 3.18841 0.0473785ZM16.9348 5.1708L16.9565 8.32731L17.1957 8.78017C17.471 9.30063 17.8623 9.65886 18.4348 9.90895L18.8406 10.0847L22.4493 10.105L26.0507 10.1252V20.6222C26.0507 32.4101 26.0942 31.5111 25.5072 32.0519C24.9275 32.5993 25.7899 32.5588 14.0942 32.5588C2.39855 32.5588 3.26087 32.5993 2.68116 32.0519C2.08696 31.5044 2.13768 32.8089 2.13768 17.2832C2.13768 1.75068 2.08696 3.06195 2.68116 2.51446C3.23913 1.99401 2.82609 2.02105 10.2681 2.01429L16.913 2.00753L16.9348 5.1708ZM22.4493 5.95486C23.7536 7.10391 24.8188 8.05695 24.8188 8.07047C24.8188 8.07722 23.5797 8.09074 22.0725 8.09074C19.6667 8.09074 19.3043 8.07722 19.2101 7.9826C19.1087 7.89473 19.0942 7.56353 19.0942 5.44116V3.00788L19.587 3.4337C19.8551 3.66351 21.1377 4.79905 22.4493 5.95486Z" fill="#2C2C2E"/>
<path d="M5.38407 13.6401C5.07247 13.7888 4.81885 14.1876 4.81885 14.512C4.81885 14.85 5.07247 15.2352 5.39856 15.3907C5.68117 15.5259 5.80435 15.5259 13.8768 15.5259C21.9493 15.5259 22.0725 15.5259 22.3551 15.3907C22.6812 15.2352 22.9348 14.85 22.9348 14.512C22.9348 14.1741 22.6812 13.7888 22.3551 13.6333C22.0725 13.4981 21.9493 13.4981 13.8623 13.4981C5.83334 13.5049 5.64493 13.5049 5.38407 13.6401Z" fill="#2C2C2E"/>
<path d="M5.38407 19.0473C5.07247 19.196 4.81885 19.5948 4.81885 19.9192C4.81885 20.2572 5.07247 20.6425 5.39856 20.7979C5.68117 20.9331 5.80435 20.9331 13.8768 20.9331C21.9493 20.9331 22.0725 20.9331 22.3551 20.7979C22.6812 20.6425 22.9348 20.2572 22.9348 19.9192C22.9348 19.5813 22.6812 19.196 22.3551 19.0405C22.0725 18.9054 21.9493 18.9054 13.8623 18.9054C5.83334 18.9121 5.64493 18.9121 5.38407 19.0473Z" fill="#2C2C2E"/>
<path d="M5.38407 24.4479C5.07247 24.6033 4.81885 25.0021 4.81885 25.3265C4.81885 25.6645 5.07247 26.0498 5.39856 26.2052C5.68117 26.3404 5.78986 26.3472 8.6232 26.3269C11.4493 26.3066 11.558 26.2999 11.7464 26.1647C12.1087 25.9146 12.2464 25.678 12.2464 25.3265C12.2464 24.9751 12.1087 24.7385 11.7464 24.4884C11.5507 24.3532 11.4493 24.3465 8.60146 24.3329C5.77537 24.3194 5.63769 24.3194 5.38407 24.4479Z" fill="#2C2C2E"/>
</svg>
